<mxfile host="65bd71144e" modified="2020-12-22T14:56:55.071Z" agent="5.0 (Windows NT 10.0; Win64; x64) AppleWebKit/537.36 (KHTML, like Gecko) Code/1.52.0 Chrome/83.0.4103.122 Electron/9.3.5 Safari/537.36" version="13.10.0" etag="3UPatvwWGSe90DrfeC3J" type="embed">
    <diagram id="5UdZebLAhkd4bwQq8ZIQ" name="Page-1">
        <mxGraphModel dx="232" dy="446" grid="1" gridSize="10" guides="1" tooltips="1" connect="1" arrows="1" fold="1" page="1" pageScale="1" pageWidth="850" pageHeight="1100" math="0" shadow="0">
            <root>
                <mxCell id="0"/>
                <mxCell id="1" parent="0"/>
                <mxCell id="2" value="" style="line;strokeWidth=2;direction=south;html=1;" vertex="1" parent="1">
                    <mxGeometry x="578.5" y="60" width="10" height="250" as="geometry"/>
                </mxCell>
                <mxCell id="3" value="" style="line;strokeWidth=2;direction=south;html=1;" vertex="1" parent="1">
                    <mxGeometry x="178.5" y="60" width="10" height="250" as="geometry"/>
                </mxCell>
                <mxCell id="4" value="" style="endArrow=classic;html=1;" edge="1" parent="1">
                    <mxGeometry width="50" height="50" relative="1" as="geometry">
                        <mxPoint x="198.5" y="100" as="sourcePoint"/>
                        <mxPoint x="568.5" y="100" as="targetPoint"/>
                    </mxGeometry>
                </mxCell>
                <mxCell id="5" value="HTTP GET /swip/udp/&amp;lt;rnd_combination&amp;gt;.xml" style="text;html=1;align=center;verticalAlign=middle;resizable=0;points=[];autosize=1;" vertex="1" parent="1">
                    <mxGeometry x="258.5" y="80" width="260" height="20" as="geometry"/>
                </mxCell>
                <mxCell id="7" value="Client" style="rounded=1;whiteSpace=wrap;html=1;" vertex="1" parent="1">
                    <mxGeometry x="131" y="30" width="105" height="30" as="geometry"/>
                </mxCell>
                <mxCell id="8" value="Server" style="rounded=1;whiteSpace=wrap;html=1;" vertex="1" parent="1">
                    <mxGeometry x="531" y="30" width="105" height="30" as="geometry"/>
                </mxCell>
                <mxCell id="12" value="" style="endArrow=none;html=1;startArrow=classic;startFill=1;endFill=0;" edge="1" parent="1">
                    <mxGeometry width="50" height="50" relative="1" as="geometry">
                        <mxPoint x="198.5" y="140" as="sourcePoint"/>
                        <mxPoint x="568.5" y="140" as="targetPoint"/>
                    </mxGeometry>
                </mxCell>
                <mxCell id="13" value="JobEngine" style="text;html=1;align=center;verticalAlign=middle;resizable=0;points=[];autosize=1;" vertex="1" parent="1">
                    <mxGeometry x="358.5" y="120" width="70" height="20" as="geometry"/>
                </mxCell>
                <mxCell id="14" value="" style="endArrow=classic;html=1;" edge="1" parent="1">
                    <mxGeometry width="50" height="50" relative="1" as="geometry">
                        <mxPoint x="200" y="240" as="sourcePoint"/>
                        <mxPoint x="570" y="240" as="targetPoint"/>
                    </mxGeometry>
                </mxCell>
                <mxCell id="15" value="HTTP PUT /fonts/woff/&amp;lt;rnd_combination&amp;gt;.woff2" style="text;html=1;align=center;verticalAlign=middle;resizable=0;points=[];autosize=1;" vertex="1" parent="1">
                    <mxGeometry x="245" y="220" width="270" height="20" as="geometry"/>
                </mxCell>
                <mxCell id="16" value="" style="endArrow=none;html=1;startArrow=classic;startFill=1;endFill=0;" edge="1" parent="1">
                    <mxGeometry width="50" height="50" relative="1" as="geometry">
                        <mxPoint x="200" y="280" as="sourcePoint"/>
                        <mxPoint x="570" y="280" as="targetPoint"/>
                    </mxGeometry>
                </mxCell>
                <mxCell id="17" value="JobEngine" style="text;html=1;align=center;verticalAlign=middle;resizable=0;points=[];autosize=1;" vertex="1" parent="1">
                    <mxGeometry x="360" y="260" width="70" height="20" as="geometry"/>
                </mxCell>
                <mxCell id="19" value="&lt;span&gt;&lt;font color=&quot;#000000&quot;&gt;The client preforms the action defined by JobEngine and responses to the server with the suited method containing the result.&lt;/font&gt;&lt;/span&gt;" style="rounded=0;whiteSpace=wrap;html=1;fillColor=#b0e3e6;strokeColor=#0e8088;" vertex="1" parent="1">
                    <mxGeometry x="50" y="120" width="120" height="130" as="geometry"/>
                </mxCell>
                <mxCell id="21" value="&lt;span&gt;&lt;font color=&quot;#000000&quot;&gt;The malware sends request for new command&lt;/font&gt;&lt;/span&gt;" style="rounded=0;whiteSpace=wrap;html=1;fillColor=#fad7ac;strokeColor=#b46504;" vertex="1" parent="1">
                    <mxGeometry x="600" y="90" width="120" height="60" as="geometry"/>
                </mxCell>
            </root>
        </mxGraphModel>
    </diagram>
</mxfile>